# xmcd
#
# Track frame offsets: 
#        150
#        16945
#        39436
#        59225
#        78763
#        99374
#        117701
#        135358
#        153653
#        176307
#        193672
#        206960
#        224333
#        243000
#        260343
#        278900
#
# Disc length: 3903 seconds
#
# Revision: 0
# Processed by: cddbd v1.5.2PL0 Copyright (c) Steve Scherf et al.
# Submitted via: ExactAudioCopy v1.0b3
#
DISCID=e10f3d10
DTITLE=合辑 - 草原歌典-第九辑
DYEAR=2006
DGENRE=
TTITLE0=欢聚那达慕
TTITLE1=忘不了我的草原
TTITLE2=我的大草原
TTITLE3=金色的沙漠上
TTITLE4=蒙古袍
TTITLE5=草原在哪里
TTITLE6=远方飞来一群白天鹅
TTITLE7=天堂草原
TTITLE8=草原绿色的歌
TTITLE9=心中的草原
TTITLE10=内蒙古好地方
TTITLE11=草原河母亲河
TTITLE12=天边的故乡
TTITLE13=图晋桑
TTITLE14=你好内蒙古
TTITLE15=光景不错
EXTD=
EXTT0=
EXTT1=
EXTT2=
EXTT3=
EXTT4=
EXTT5=
EXTT6=
EXTT7=
EXTT8=
EXTT9=
EXTT10=
EXTT11=
EXTT12=
EXTT13=
EXTT14=
EXTT15=
PLAYORDER=
